<svg xmlns="http://www.w3.org/2000/svg" viewBox="0 0 1600 900"><defs><linearGradient id="sky" x2="0" y2="1"><stop stop-color="#8dc7ee"/><stop offset="1" stop-color="#e7f1f5"/></linearGradient></defs><rect width="1600" height="900" fill="url(#sky)"/><rect y="570" width="1600" height="330" fill="#41484c"/><path d="M0 720h1600" stroke="#fff" stroke-width="20" stroke-dasharray="110 80" opacity=".7"/><g transform="translate(720 480)"><circle cx="-185" cy="220" r="120" fill="none" stroke="#171b1e" stroke-width="25"/><circle cx="205" cy="220" r="120" fill="none" stroke="#171b1e" stroke-width="25"/><path d="M-185 220L-20 60l110 160H-185L5 220l90-245 110 245" fill="none" stroke="#e5b324" stroke-width="25" stroke-linejoin="round"/><circle cx="20" cy="-85" r="55" fill="#d19a76"/><path d="M-5-35L-100 75 20 95 105 0z" fill="#cc3038"/><path d="M-90 75l-85 145M20 95L5 220M90 5l115 70" stroke="#1d2730" stroke-width="28" stroke-linecap="round"/></g><path d="M0 540q300-120 600-20t1000-30v120H0z" fill="#315e3e"/></svg>