<svg xmlns="http://www.w3.org/2000/svg" viewBox="0 0 1600 900">
<defs><linearGradient id="sky" x2="0" y2="1"><stop stop-color="#73b5e5"/><stop offset="1" stop-color="#d7edf8"/></linearGradient><linearGradient id="water" x2="0" y2="1"><stop stop-color="#327e9e"/><stop offset="1" stop-color="#123e55"/></linearGradient></defs>
<rect width="1600" height="900" fill="url(#sky)"/><path d="M0 540L230 270l150 160 250-310 210 300 180-210 310 330z" fill="#667985"/><path d="M0 555L230 305l150 165 250-300 210 290 180-205 310 300z" fill="#dce6e9" opacity=".8"/><path d="M0 510L190 385l185 90 185-120 220 130 230-110 300 170v130H0z" fill="#284c3b"/><rect y="580" width="1600" height="320" fill="url(#water)"/><g opacity=".35" transform="translate(0 1160) scale(1 -1)"><path d="M0 540L230 270l150 160 250-310 210 300 180-210 310 330z" fill="#a6c7d2"/></g><path d="M0 690q300-50 570 8t1030-5" fill="none" stroke="#b4ecf2" stroke-width="8" opacity=".35"/></svg>