<svg xmlns="http://www.w3.org/2000/svg" viewBox="0 0 1600 900"><defs><linearGradient id="night" x2="0" y2="1"><stop stop-color="#071124"/><stop offset="1" stop-color="#1c3150"/></linearGradient></defs><rect width="1600" height="900" fill="url(#night)"/><g fill="#101722"><rect x="40" y="270" width="220" height="630"/><rect x="280" y="150" width="280" height="750"/><rect x="590" y="330" width="200" height="570"/><rect x="820" y="90" width="330" height="810"/><rect x="1180" y="230" width="350" height="670"/></g><g fill="#ffd65b"><path d="M80 320h35v55H80zm75 0h35v55h-35zm180-110h42v62h-42zm90 0h42v62h-42zm220 180h35v55h-35zm230-230h45v65h-45zm100 0h45v65h-45zm255 130h42v62h-42zm100 0h42v62h-42z"/></g><path d="M0 790q380-70 740 0t860-20v130H0z" fill="#090d13"/><path d="M120 900L610 600M1480 900L1010 590" stroke="#e6af2c" stroke-width="10" opacity=".55"/></svg>