<svg xmlns="http://www.w3.org/2000/svg" viewBox="0 0 1600 900"><defs><linearGradient id="sky" x2="0" y2="1"><stop stop-color="#9ed6ee"/><stop offset="1" stop-color="#edf6f4"/></linearGradient></defs><rect width="1600" height="900" fill="url(#sky)"/><path d="M0 650q280-160 600-40t1000-30v320H0z" fill="#446c3b"/><g transform="translate(830 360)"><path d="M0 80q-150-150-350-80 145 25 250 145-100 5-180 80 190-10 300-105 115 100 330 80-120-55-205-65 110-105 260-135-215-55-365 80z" fill="#273039"/><ellipse cx="30" cy="88" rx="90" ry="55" fill="#273039"/><path d="M100 82l115-42-90 80z" fill="#dba628"/><circle cx="63" cy="68" r="8" fill="#fff"/></g><g fill="#73905a"><circle cx="180" cy="650" r="180"/><circle cx="1450" cy="690" r="220"/></g></svg>